<?xml version="1.0" standalone="no"?>
<!DOCTYPE svg PUBLIC "-//W3C//DTD SVG 20010904//EN"
 "http://www.w3.org/TR/2001/REC-SVG-20010904/DTD/svg10.dtd">
<svg version="1.0" xmlns="http://www.w3.org/2000/svg"
 width="270.000000pt" height="270.000000pt" viewBox="0 0 270.000000 270.000000"
 preserveAspectRatio="xMidYMid meet">
<metadata>
Created by potrace 1.11, written by Peter Selinger 2001-2013
</metadata>
<g transform="translate(0.000000,270.000000) scale(0.100000,-0.100000)"
fill="#000000" stroke="none">
<path d="M0 1350 l0 -1350 1350 0 1350 0 0 1350 0 1350 -1350 0 -1350 0 0
-1350z m2186 719 c51 -35 98 -115 125 -214 31 -114 31 -326 0 -440 -46 -170
-135 -320 -266 -443 -311 -296 -764 -399 -1148 -262 l-82 30 -15 -23 c-37 -57
-116 -125 -158 -136 -132 -36 -273 74 -274 213 -1 70 21 108 103 186 l68 65
-9 40 c-16 66 -11 177 10 259 52 204 199 370 425 484 158 79 192 85 645 111
175 10 207 19 273 80 66 61 119 82 198 79 51 -3 75 -9 105 -29z"/>
<path d="M2015 1981 c-22 -10 -53 -33 -70 -51 -66 -70 -135 -88 -390 -101
-376 -18 -449 -34 -615 -137 -242 -150 -361 -414 -285 -634 7 -23 11 -48 6
-55 -4 -7 -38 -38 -76 -68 -38 -30 -77 -67 -87 -83 -36 -54 -16 -127 43 -158
64 -33 102 -12 172 95 25 37 53 71 61 74 8 3 46 -8 83 -25 37 -17 110 -41 162
-54 191 -49 352 -42 547 25 433 146 705 523 655 906 -17 125 -47 213 -86 252
-38 38 -63 41 -120 14z m-285 -471 c23 -23 25 -39 7 -64 -12 -16 -31 -19 -148
-21 -274 -6 -467 -97 -637 -300 -67 -79 -89 -89 -124 -58 -10 9 -18 25 -18 36
0 51 173 228 291 298 150 89 293 127 492 128 104 1 119 -1 137 -19z"/>
</g>
</svg>
